<svg xmlns="http://www.w3.org/2000/svg" xmlns:xlink="http://www.w3.org/1999/xlink" width="24" height="24" preserveAspectRatio="xMidYMid meet" viewBox="0 0 24 24" style="-ms-transform: rotate(360deg); -webkit-transform: rotate(360deg); transform: rotate(360deg);"><path d="M12 2C6.477 2 2 6.477 2 12s4.477 10 10 10 10-4.477 10-10a10 10 0 00-.607-3.393l-1.606 1.606c.138.586.21 1.185.213 1.787a8 8 0 11-8-8 8.001 8.001 0 011.79.21l1.607-1.607A10 10 0 0012 2zm7 0l-4 4v1.5l-2.553 2.553a2 2 0 101.5 1.5L16.5 9H18l4-4h-3V2zm-7 4a6 6 0 106 6h-2a4 4 0 11-4-4V6z" fill="#626262"/><rect x="0" y="0" width="24" height="24" fill="rgba(0, 0, 0, 0)" /></svg>